<svg width="392" height="368" viewBox="0 0 392 368" fill="none" xmlns="http://www.w3.org/2000/svg">
<rect x="1.5" y="1.5" width="317" height="317" rx="35.5" fill="#6666FF" stroke="black" stroke-width="3"/>
<rect x="73.5" y="49.5" width="317" height="317" rx="35.5" fill="#AAAAFF" stroke="black" stroke-width="3"/>
<path d="M202.571 161.226L206.807 149.589L229.443 154.763L236.141 136.36C249.734 99.0125 270.243 85.3297 297.667 95.3112C303.62 97.4782 308.516 100.588 312.353 104.641L305.313 115.564C303.05 113.923 299.392 112.183 294.34 110.344C289.289 108.505 284.622 108.135 280.34 109.233C276.305 110.216 272.777 112.61 269.758 116.414C264.736 122.351 259.96 131.544 255.429 143.993L248.928 161.855L283.839 174.561L278.619 188.905L243.707 176.198L193.201 314.122C190.443 321.699 188.022 326.948 185.938 329.867C183.788 332.967 180.991 334.196 177.546 333.555L163.573 324.792C167.461 322.529 171.572 315.444 175.906 303.536L224.222 169.106L202.571 161.226Z" fill="#6666FF"/>
</svg>
