<svg width="392" height="368" viewBox="0 0 392 368" fill="none" xmlns="http://www.w3.org/2000/svg">
<rect x="1.5" y="1.5" width="317" height="317" rx="35.5" fill="#6666FF" stroke="black" stroke-width="3"/>
<rect x="73.5" y="49.5" width="317" height="317" rx="35.5" fill="#AAAAFF" stroke="black" stroke-width="3"/>
<path d="M200.571 159.226L204.807 147.589L227.443 152.763L234.141 134.36C247.734 97.0125 268.243 83.3297 295.667 93.3112C301.62 95.4782 306.516 98.5882 310.353 102.641L303.313 113.564C301.05 111.923 297.392 110.183 292.34 108.344C287.289 106.505 282.622 106.135 278.34 107.233C274.305 108.216 270.777 110.61 267.758 114.414C262.736 120.351 257.96 129.544 253.429 141.993L246.928 159.855L281.839 172.561L276.619 186.905L241.707 174.198L191.201 312.122C188.443 319.699 186.022 324.948 183.938 327.867C181.788 330.967 178.991 332.196 175.546 331.555L161.573 322.792C165.461 320.529 169.572 313.444 173.906 301.536L222.222 167.106L200.571 159.226Z" fill="#6666FF"/>
<path d="M332.207 331.237C333.685 332.617 336.003 332.537 337.383 331.059L359.874 306.965C361.254 305.486 361.174 303.169 359.696 301.789C358.218 300.409 355.9 300.489 354.52 301.967L334.528 323.384L313.114 303.395C311.636 302.015 309.319 302.095 307.939 303.573C306.558 305.052 306.638 307.369 308.116 308.749L332.207 331.237ZM329.241 276.126L331.046 328.686L338.366 328.434L336.561 275.874L329.241 276.126Z" fill="#6666FF"/>
<line y1="-3.66198" x2="52.0053" y2="-3.66198" transform="matrix(0.999912 -0.013296 0.0133684 0.999911 308 344.845)" stroke="#6666FF" stroke-width="7.32397"/>
</svg>
