<svg width="393" height="368" viewBox="0 0 393 368" fill="none" xmlns="http://www.w3.org/2000/svg">
<rect x="1.5" y="1.5" width="317" height="317" rx="35.5" fill="#6666FF" stroke="black" stroke-width="3"/>
<rect x="73.5" y="49.5" width="317" height="317" rx="35.5" fill="#AAAAFF" stroke="black" stroke-width="3"/>
<line x1="72.1219" y1="65.5004" x2="392.122" y2="67.5004" stroke="black" stroke-width="39"/>
<circle cx="92.5" cy="65.5" r="5.5" fill="#FF6633"/>
<circle cx="111.5" cy="65.5" r="5.5" fill="#FFFF33"/>
<circle cx="130.5" cy="65.5" r="5.5" fill="#66FF33"/>
<path d="M203.571 169.226L207.807 157.589L230.443 162.763L237.141 144.36C250.734 107.012 271.243 93.3297 298.667 103.311C304.62 105.478 309.516 108.588 313.353 112.641L306.313 123.564C304.05 121.923 300.392 120.183 295.34 118.344C290.289 116.505 285.622 116.135 281.34 117.233C277.305 118.216 273.777 120.61 270.758 124.414C265.736 130.351 260.96 139.544 256.429 151.993L249.928 169.855L284.839 182.561L279.619 196.905L244.707 184.198L194.201 322.122C191.443 329.699 189.022 334.948 186.938 337.867C184.788 340.967 181.991 342.196 178.546 341.555L164.573 332.792C168.461 330.529 172.572 323.444 176.906 311.536L225.222 177.106L203.571 169.226Z" fill="#6666FF"/>
<path d="M335.207 331.237C336.685 332.617 339.003 332.537 340.383 331.059L362.874 306.965C364.254 305.486 364.174 303.169 362.696 301.789C361.218 300.409 358.901 300.489 357.52 301.967L337.528 323.384L316.114 303.395C314.636 302.015 312.319 302.095 310.939 303.573C309.558 305.052 309.638 307.369 311.116 308.749L335.207 331.237ZM332.241 276.126L334.046 328.686L341.366 328.434L339.561 275.874L332.241 276.126Z" fill="#6666FF"/>
<line y1="-3.66198" x2="52.0053" y2="-3.66198" transform="matrix(0.999912 -0.013296 0.0133684 0.999911 311 344.845)" stroke="#6666FF" stroke-width="7.32397"/>
</svg>
