<svg width="240" height="240" viewBox="0 0 240 240" fill="none" xmlns="http://www.w3.org/2000/svg">
<path d="M120 240C186.274 240 240 186.274 240 120C240 53.7258 186.274 0 120 0C53.7258 0 0 53.7258 0 120C0 186.274 53.7258 240 120 240Z" fill="#A02C2C"/>
<path d="M130.838 239.419C134.039 239.159 137.229 238.772 140.4 238.256C144.341 237.577 148.246 236.701 152.1 235.631C155.955 234.559 159.753 233.295 163.481 231.844C167.211 230.396 170.865 228.763 174.431 226.95C177.998 225.131 181.471 223.135 184.838 220.969C188.202 218.808 191.456 216.48 194.588 213.994C197.724 211.508 200.734 208.867 203.606 206.081C206.476 203.294 209.204 200.366 211.781 197.306C214.358 194.248 216.779 191.063 219.038 187.763C221.301 184.457 223.397 181.04 225.319 177.525C227.235 174.014 228.975 170.41 230.531 166.725C232.087 163.04 233.457 159.279 234.638 155.456C235.818 151.633 236.807 147.753 237.6 143.831C238.397 139.914 238.998 135.959 239.4 131.981C239.42 131.613 239.439 131.244 239.456 130.875L174.281 65.7188C160.376 51.8132 141.179 43.2 120 43.2C77.6414 43.2 43.2 77.6419 43.2 120C43.2 141.18 51.8137 160.377 65.7188 174.281L130.838 239.419Z" fill="#66041C"/>
<path d="M120 43.2C77.6414 43.2 43.2 77.6419 43.2 120C43.2 162.359 77.6414 196.8 120 196.8C162.359 196.8 196.8 162.359 196.8 120C196.8 77.6419 162.359 43.2 120 43.2ZM120 52.8C122.221 52.8 124.653 53.9221 127.425 56.925C130.197 59.9279 133.019 64.7089 135.413 70.8375C137.65 76.5673 139.474 83.5177 140.831 91.2H99.1688C100.526 83.5177 102.35 76.5673 104.588 70.8375C106.981 64.7089 109.803 59.9279 112.575 56.925C115.347 53.9221 117.779 52.8 120 52.8ZM101.756 55.35C99.4605 58.8071 97.4194 62.8023 95.6438 67.35C92.9495 74.25 90.8077 82.3113 89.3438 91.2H59.325C67.5559 73.8518 82.9546 60.6314 101.756 55.35ZM138.244 55.35C157.045 60.6314 172.444 73.8518 180.675 91.2H150.656C149.192 82.3113 147.051 74.25 144.356 67.35C142.581 62.8023 140.54 58.8071 138.244 55.35ZM55.6125 100.8H88.2C87.5546 106.968 87.0938 113.323 87.0938 120C87.0938 126.678 87.5546 133.029 88.2 139.2H55.6125C53.8032 133.11 52.8 126.685 52.8 120C52.8 113.322 53.8066 106.885 55.6125 100.8ZM97.875 100.8H142.125C142.812 106.927 143.306 113.288 143.306 120C143.306 126.719 142.813 133.065 142.125 139.2H97.875C97.1872 133.065 96.6938 126.719 96.6938 120C96.6938 113.288 97.1886 106.927 97.875 100.8ZM151.8 100.8H184.388C186.193 106.885 187.2 113.322 187.2 120C187.2 126.685 186.197 133.11 184.388 139.2H151.8C152.445 133.029 152.906 126.678 152.906 120C152.906 113.323 152.445 106.968 151.8 100.8ZM59.3438 148.8H89.3438C90.8077 157.694 92.9495 165.769 95.6438 172.669C97.4157 177.206 99.4477 181.179 101.738 184.631C82.952 179.349 67.5748 166.132 59.3438 148.8V148.8ZM99.1875 148.8H140.813C139.455 156.479 137.648 163.457 135.413 169.181C133.019 175.311 130.197 180.091 127.425 183.094C124.653 186.097 122.221 187.2 120 187.2C117.779 187.2 115.347 186.097 112.575 183.094C109.803 180.091 106.981 175.311 104.588 169.181C102.352 163.457 100.545 156.479 99.1875 148.8V148.8ZM150.656 148.8H180.656C172.425 166.132 157.048 179.349 138.263 184.631C140.552 181.179 142.584 177.206 144.356 172.669C147.051 165.769 149.192 157.694 150.656 148.8Z" fill="white"/>
</svg>
