<svg width="321" height="345" viewBox="0 0 321 345" fill="none" xmlns="http://www.w3.org/2000/svg">
<rect width="320" height="345" fill="#C4C4C4"/>
<line x1="0.121873" y1="19.5004" x2="320.122" y2="21.5004" stroke="black" stroke-width="39"/>
<circle cx="20.5" cy="19.5" r="5.5" fill="#FF6633"/>
<circle cx="39.5" cy="19.5" r="5.5" fill="#FFFF33"/>
<circle cx="58.5" cy="19.5" r="5.5" fill="#66FF33"/>
<path d="M160 314C226.274 314 280 260.274 280 194C280 127.726 226.274 74 160 74C93.7258 74 40 127.726 40 194C40 260.274 93.7258 314 160 314Z" fill="#A02C2C"/>
<path d="M170.838 313.419C174.039 313.159 177.229 312.772 180.4 312.256C184.341 311.577 188.246 310.701 192.1 309.631C195.955 308.559 199.753 307.295 203.481 305.844C207.211 304.396 210.865 302.763 214.431 300.95C217.998 299.131 221.471 297.135 224.838 294.969C228.202 292.808 231.456 290.48 234.588 287.994C237.724 285.508 240.734 282.867 243.606 280.081C246.476 277.294 249.204 274.366 251.781 271.306C254.358 268.248 256.779 265.063 259.038 261.763C261.301 258.457 263.397 255.04 265.319 251.525C267.235 248.014 268.975 244.41 270.531 240.725C272.087 237.04 273.457 233.279 274.638 229.456C275.818 225.633 276.807 221.753 277.6 217.831C278.397 213.914 278.998 209.959 279.4 205.981C279.42 205.613 279.439 205.244 279.456 204.875L214.281 139.719C200.376 125.813 181.179 117.2 160 117.2C117.641 117.2 83.2 151.642 83.2 194C83.2 215.18 91.8137 234.377 105.719 248.281L170.838 313.419Z" fill="#66041C"/>
<path d="M160 117.2C117.641 117.2 83.2 151.642 83.2 194C83.2 236.359 117.641 270.8 160 270.8C202.359 270.8 236.8 236.359 236.8 194C236.8 151.642 202.359 117.2 160 117.2ZM160 126.8C162.221 126.8 164.653 127.922 167.425 130.925C170.197 133.928 173.019 138.709 175.413 144.838C177.65 150.567 179.474 157.518 180.831 165.2H139.169C140.526 157.518 142.35 150.567 144.588 144.838C146.981 138.709 149.803 133.928 152.575 130.925C155.347 127.922 157.779 126.8 160 126.8ZM141.756 129.35C139.461 132.807 137.419 136.802 135.644 141.35C132.949 148.25 130.808 156.311 129.344 165.2H99.325C107.556 147.852 122.955 134.631 141.756 129.35ZM178.244 129.35C197.045 134.631 212.444 147.852 220.675 165.2H190.656C189.192 156.311 187.051 148.25 184.356 141.35C182.581 136.802 180.54 132.807 178.244 129.35ZM95.6125 174.8H128.2C127.555 180.968 127.094 187.323 127.094 194C127.094 200.678 127.555 207.029 128.2 213.2H95.6125C93.8032 207.11 92.8 200.685 92.8 194C92.8 187.322 93.8066 180.885 95.6125 174.8ZM137.875 174.8H182.125C182.812 180.927 183.306 187.288 183.306 194C183.306 200.719 182.813 207.065 182.125 213.2H137.875C137.187 207.065 136.694 200.719 136.694 194C136.694 187.288 137.189 180.927 137.875 174.8ZM191.8 174.8H224.388C226.193 180.885 227.2 187.322 227.2 194C227.2 200.685 226.197 207.11 224.388 213.2H191.8C192.445 207.029 192.906 200.678 192.906 194C192.906 187.323 192.445 180.968 191.8 174.8ZM99.3438 222.8H129.344C130.808 231.694 132.949 239.769 135.644 246.669C137.416 251.206 139.448 255.179 141.738 258.631C122.952 253.349 107.575 240.132 99.3438 222.8V222.8ZM139.188 222.8H180.813C179.455 230.479 177.648 237.457 175.413 243.181C173.019 249.311 170.197 254.091 167.425 257.094C164.653 260.097 162.221 261.2 160 261.2C157.779 261.2 155.347 260.097 152.575 257.094C149.803 254.091 146.981 249.311 144.588 243.181C142.352 237.457 140.545 230.479 139.188 222.8V222.8ZM190.656 222.8H220.656C212.425 240.132 197.048 253.349 178.263 258.631C180.552 255.179 182.584 251.206 184.356 246.669C187.051 239.769 189.192 231.694 190.656 222.8Z" fill="white"/>
</svg>
