<svg width="513" height="513" viewBox="0 0 513 513" fill="none" xmlns="http://www.w3.org/2000/svg">
<path d="M424.091 324.112L188.293 89.4027C184.154 85.2637 177.392 85.2637 173.232 89.4237L131.141 131.515C126.981 135.675 126.981 142.438 131.141 146.598L144.922 160.401L78.554 226.769C35.653 269.67 33.519 337.532 71.087 383.569L3.12 451.536C-1.04 455.696 -1.04 462.459 3.12 466.619L45.787 509.286C47.878 511.377 50.608 512.401 53.339 512.401C56.07 512.401 58.8 511.356 60.891 509.286L128.859 441.318C150.363 458.854 176.39 468.177 202.694 468.177C232.731 468.177 262.79 456.742 285.659 433.873L352.027 367.505L365.808 381.286C369.925 385.403 376.624 385.446 380.784 381.393L424.005 339.302C426.053 337.297 427.205 334.566 427.226 331.729C427.248 328.891 426.096 326.117 424.091 324.112Z" fill="#090090"/>
<path d="M372.379 11.9198C356.507 -3.97325 330.63 -3.97325 314.758 11.9198L227.931 98.7467L285.808 156.368L372.485 69.6687C380.186 61.9677 384.432 51.7487 384.432 40.8477C384.432 29.9467 380.187 19.7278 372.379 11.9198Z" fill="#090090"/>
<path d="M500.357 139.92C484.485 124.027 458.608 124.027 442.736 139.92L356.208 226.448L414.107 284.069L500.486 197.69C508.187 189.989 512.433 179.77 512.433 168.869C512.433 157.968 508.187 147.728 500.357 139.92Z" fill="#090090"/>
</svg>
